<?xml version="1.0" standalone="no"?>
<!DOCTYPE svg PUBLIC "-//W3C//DTD SVG 20010904//EN"
 "http://www.w3.org/TR/2001/REC-SVG-20010904/DTD/svg10.dtd">
<svg version="1.0" xmlns="http://www.w3.org/2000/svg"
 width="260.000000pt" height="260.000000pt" viewBox="0 0 260.000000 260.000000"
 preserveAspectRatio="xMidYMid meet">
<metadata>
Created by potrace 1.14, written by Peter Selinger 2001-2017
</metadata>
<g transform="translate(0.000000,260.000000) scale(0.100000,-0.100000)"
fill="#000000" stroke="none">
<path d="M0 1300 l0 -1300 1300 0 1300 0 0 1300 0 1300 -1300 0 -1300 0 0
-1300z m1530 280 c0 -71 4 -130 8 -130 5 0 50 59 100 130 l92 130 58 -1 c48 0
121 -16 86 -18 -6 -1 -23 -18 -38 -38 -14 -21 -44 -60 -66 -88 -22 -27 -58
-75 -80 -105 -22 -30 -65 -86 -95 -125 -31 -38 -70 -90 -87 -115 -17 -25 -36
-49 -42 -55 -6 -5 -44 -54 -84 -107 -40 -54 -77 -98 -82 -98 -5 0 -11 -15 -13
-32 -2 -18 -5 28 -5 103 -1 75 -5 204 -9 288 l-6 152 -136 -3 c-171 -4 -173
-7 -66 -119 95 -100 135 -177 135 -262 0 -32 -7 -71 -15 -86 -20 -40 -69 -79
-113 -90 -21 -6 -191 -11 -397 -11 l-360 -1 0 118 0 118 261 3 c218 2 264 5
274 17 11 13 0 29 -66 98 -89 92 -129 153 -144 220 -20 91 22 192 95 223 23
10 117 13 413 14 l382 0 0 -130z"/>
</g>
</svg>
